<svg xmlns="http://www.w3.org/2000/svg" xmlns:xlink="http://www.w3.org/1999/xlink" width="1920" zoomAndPan="magnify" viewBox="0 0 1440 611.999999" height="816" preserveAspectRatio="xMidYMid meet" version="1.0"><path stroke-linecap="butt" transform="matrix(0.75, 0, 0, 0.75, 155.563559, 189.767239)" fill="none" stroke-linejoin="miter" d="M 17.311088 221.414524 C 16.175672 221.414524 15.576713 221.206191 15.503797 220.794733 C 15.436088 220.383274 15.331922 219.680149 15.196505 218.680149 C 15.196505 216.997857 15.196505 215.315566 15.196505 213.633274 C 15.196505 211.914524 15.196505 210.148899 15.196505 208.325982 C 15.196505 205.102024 15.196505 201.836398 15.196505 198.539523 C 15.196505 195.242648 15.264213 191.961398 15.404838 188.700981 C 15.540255 182.107231 15.644422 175.617647 15.71213 169.227022 C 15.779838 162.805147 15.816297 156.367646 15.816297 149.909313 C 15.675672 146.648896 15.540255 143.471813 15.404838 140.383271 C 15.264213 137.289521 15.196505 134.200979 15.196505 131.107229 C 15.196505 127.878062 15.300672 124.685353 15.503797 121.529103 C 15.71213 118.367645 15.884005 115.22702 16.019422 112.10202 C 16.295463 105.508269 16.295463 99.049936 16.019422 92.732227 C 15.884005 91.013477 15.816297 89.31556 15.816297 87.633268 C 15.816297 85.945768 15.816297 84.263477 15.816297 82.581185 C 15.816297 81.310352 15.748588 79.94056 15.607963 78.461393 C 15.472547 76.987435 16.107963 76.039518 17.514213 75.62806 C 18.64963 75.216601 19.951714 75.112435 21.43088 75.320768 C 22.904839 75.523893 24.21213 75.560351 25.342339 75.424935 C 27.029839 75.424935 28.712131 75.388476 30.394422 75.320768 C 32.076714 75.25306 33.826714 75.216601 35.649631 75.216601 C 38.738173 75.216601 41.759006 75.148893 44.712131 75.008268 C 47.665256 74.836393 50.691298 74.836393 53.77984 75.008268 C 56.90484 75.008268 59.946507 75.112435 62.899632 75.320768 C 65.852757 75.523893 68.873591 75.560351 71.962132 75.424935 C 75.055883 75.424935 78.144424 75.388476 81.238175 75.320768 C 84.326716 75.25306 87.420466 75.216601 90.509008 75.216601 C 96.998592 75.216601 103.4413 75.25306 109.826717 75.320768 C 116.217343 75.388476 122.654843 75.352018 129.144427 75.216601 C 135.60276 75.216601 141.988177 75.008268 148.305886 74.59681 C 154.660053 74.154101 161.066303 73.930143 167.524637 73.930143 C 173.430887 73.930143 179.337137 74.029101 185.243387 74.237435 C 191.149638 74.445768 197.055888 74.836393 202.962138 75.424935 C 206.498597 75.695768 209.951722 76.091601 213.316305 76.607226 C 216.686097 77.086393 220.134014 77.669726 223.670472 78.357226 C 226.488181 78.90931 229.305889 79.477018 232.118389 80.060351 C 234.936098 80.607227 237.665265 81.450977 240.311098 82.581185 C 243.128807 83.852018 245.977765 85.15931 248.863182 86.497852 C 251.748599 87.836393 254.186099 89.69056 256.175682 92.060352 C 257.998599 94.466602 259.644432 96.935352 261.123599 99.477019 C 262.597557 101.987436 263.904849 104.648894 265.040266 107.461394 C 266.139224 110.143686 266.753808 113.029103 266.894433 116.117645 C 267.066308 119.211395 267.066308 122.232228 266.894433 125.185353 C 266.753808 126.591604 266.722558 128.034312 266.790266 129.513479 C 266.857974 130.987437 266.753808 132.497854 266.477766 134.044729 C 266.206933 135.622854 265.774641 137.154104 265.191307 138.628062 C 264.644432 140.107229 264.024641 141.529104 263.337141 142.904104 C 260.660057 148.263479 256.967349 152.674938 252.264224 156.143688 C 247.55589 159.57598 242.52464 162.48223 237.170473 164.852022 C 232.259014 167.253064 227.055889 169.091605 221.561097 170.362439 C 218.467347 171.049939 215.259014 171.685355 211.92568 172.268689 C 208.628805 172.815564 205.368388 173.023897 202.139221 172.888481 C 199.186096 172.612439 196.128805 172.508272 192.972554 172.57598 C 189.811096 172.643689 186.753804 172.815564 183.800679 173.091606 C 181.123596 173.232231 178.305887 173.331189 175.352762 173.398897 C 172.399637 173.471814 169.51422 173.659314 166.696512 173.966606 C 163.743386 174.107231 160.790261 174.206189 157.837136 174.279106 C 154.884011 174.346814 151.930886 174.378064 148.977761 174.378064 C 145.889219 174.518689 142.831927 174.690564 139.805885 174.893689 C 136.785052 175.102022 133.712135 175.206189 130.587135 175.206189 C 124.404843 175.341606 118.222551 175.341606 112.040259 175.206189 C 105.863176 175.065564 99.680884 174.721814 93.498592 174.174939 C 90.373592 173.862439 87.264216 173.831189 84.175675 174.070772 C 81.081925 174.279106 77.920466 174.450981 74.696508 174.586397 C 74.420466 174.586397 73.717341 174.586397 72.581924 174.586397 C 71.451716 174.586397 70.743382 174.721814 70.472549 174.997856 C 70.472549 175.133272 70.472549 175.273897 70.472549 175.409314 C 70.472549 175.549939 70.472549 175.685356 70.472549 175.820772 C 70.196507 177.091606 70.128799 178.503064 70.264216 180.044731 C 70.399632 181.591606 70.472549 183.070773 70.472549 184.477023 C 70.472549 187.737439 70.472549 191.01869 70.472549 194.315565 C 70.472549 197.61244 70.472549 200.872857 70.472549 204.102024 C 70.472549 205.648899 70.472549 207.247857 70.472549 208.89369 C 70.472549 210.508274 70.472549 212.159316 70.472549 213.841607 C 70.472549 214.388482 70.571507 215.555149 70.779841 217.341607 C 70.988174 219.091608 70.884007 220.174941 70.472549 220.586399 C 70.196507 221.138483 69.217341 221.341608 67.535049 221.206191 C 65.852757 221.070774 64.649632 220.997858 63.930882 220.997858 C 62.243382 220.997858 60.597549 220.997858 58.982965 220.997858 C 57.368382 220.997858 55.790257 220.930149 54.243382 220.794733 C 50.982965 220.518691 47.769423 220.383274 44.613173 220.383274 C 41.451714 220.383274 38.259006 220.450983 35.029839 220.586399 C 32.076714 220.586399 29.123589 220.727024 26.170464 220.997858 C 23.217339 221.273899 20.264214 221.414524 17.311088 221.414524 Z M 18.800672 218.477024 C 20.759005 218.477024 22.64963 218.372857 24.467339 218.164524 C 26.290255 217.961399 28.128797 217.773899 29.982964 217.602024 C 32.352756 217.325982 34.686089 217.221816 36.988173 217.289524 C 39.321506 217.357232 41.623589 217.393691 43.889215 217.393691 C 45.847548 217.393691 47.805881 217.430149 49.764215 217.497857 C 51.753798 217.565566 53.727757 217.685357 55.68609 217.857232 C 56.821507 217.992649 57.920465 218.029107 58.982965 217.961399 C 60.045465 217.893691 61.128799 217.857232 62.227757 217.857232 C 62.535049 217.857232 63.46734 217.893691 65.009007 217.961399 C 66.555882 218.029107 67.399632 217.992649 67.535049 217.857232 C 67.811091 217.549941 67.878799 216.654107 67.738174 215.180149 C 67.602757 213.700982 67.535049 212.825982 67.535049 212.549941 C 67.535049 211.419732 67.535049 210.232232 67.535049 208.997857 C 67.535049 207.727024 67.535049 206.523899 67.535049 205.39369 C 67.535049 202.852023 67.535049 200.325982 67.535049 197.820773 C 67.535049 195.279106 67.535049 192.669731 67.535049 189.98744 C 67.535049 187.586398 67.535049 185.164523 67.535049 182.727023 C 67.535049 180.253064 67.467341 177.815564 67.326716 175.409314 C 67.326716 175.133272 67.295466 174.654106 67.227757 173.966606 C 67.154841 173.247856 67.191299 172.747856 67.326716 172.471814 C 67.602757 172.060355 67.670466 171.924939 67.535049 172.060355 C 67.399632 172.20098 67.602757 172.20098 68.154841 172.060355 C 68.837132 171.617647 69.816299 171.445772 71.087132 171.54473 C 72.357966 171.617647 73.425674 171.648897 74.285049 171.648897 C 78.779841 171.341605 83.248591 171.154105 87.675675 171.081189 C 92.107967 171.01348 96.5038 171.117647 100.863175 171.393689 C 109.722551 171.977022 118.446509 172.20098 127.035052 172.060355 C 135.482969 171.924939 143.910052 171.685355 152.326719 171.341605 C 160.774636 170.961397 169.290262 170.706189 177.878804 170.565564 C 182.238179 170.430147 186.566304 170.227022 190.857971 169.95098 C 195.149638 169.674939 199.477763 169.674939 203.837138 169.95098 C 208.201722 170.086397 212.529847 169.518689 216.821514 168.247855 C 221.113181 166.977022 225.285056 165.706189 229.337139 164.440563 C 234.144431 162.893688 239.076723 160.711397 244.123598 157.893688 C 249.206932 155.081188 253.566307 151.57598 257.206932 147.388479 C 260.884016 143.164521 262.993391 138.305146 263.545474 132.810354 C 263.816307 130.680145 263.956932 128.497854 263.956932 126.268687 C 263.956932 123.997853 263.956932 121.82077 263.956932 119.721812 C 263.816307 117.596811 263.644432 115.518686 263.441307 113.492645 C 263.232974 111.466603 262.701724 109.523894 261.842349 107.669728 C 260.024641 103.753061 257.946516 100.044727 255.613182 96.544727 C 253.311099 93.008269 250.11839 90.325977 246.029848 88.508269 C 243.89964 87.648893 241.821515 86.773893 239.795473 85.87806 C 237.769431 84.950977 235.691306 84.216602 233.561098 83.664518 C 231.607973 83.081185 229.628806 82.617643 227.639223 82.273893 C 225.680889 81.930143 223.722556 81.53431 221.764222 81.086393 C 217.680889 80.263476 213.592347 79.648893 209.503805 79.232226 C 205.451722 78.789518 201.384013 78.357226 197.295471 77.945768 C 188.160054 76.81556 178.873595 76.47181 169.430887 76.914518 C 160.019428 77.325976 150.727761 77.742643 141.561094 78.154101 C 132.014218 78.56556 122.41526 78.669726 112.764218 78.461393 C 103.149634 78.25306 93.477758 78.154101 83.759008 78.154101 C 81.529841 78.154101 79.316299 78.185351 77.118383 78.25306 C 74.951716 78.325976 72.738174 78.424935 70.472549 78.56556 C 68.514216 78.700976 66.540257 78.669726 64.545465 78.461393 C 62.587132 78.25306 60.56109 78.086393 58.46734 77.945768 C 54.107965 77.669726 49.62359 77.669726 45.024631 77.945768 C 40.456923 78.22181 35.920464 78.357226 31.425672 78.357226 C 29.326714 78.357226 27.217339 78.393685 25.08713 78.461393 C 22.99338 78.529101 20.89963 78.56556 18.800672 78.56556 C 18.800672 83.336393 18.83713 88.164519 18.904838 93.039519 C 18.972547 97.883269 19.076714 102.690561 19.21213 107.461394 C 19.21213 112.13327 19.02463 116.78952 18.64963 121.424937 C 18.30588 126.060353 18.201713 130.628062 18.33713 135.128062 C 18.33713 139.628062 18.410047 144.159313 18.545463 148.727021 C 18.717338 153.29473 18.800672 157.82598 18.800672 162.32598 C 18.800672 167.133272 18.748588 171.924939 18.64963 176.695772 C 18.576713 181.471814 18.477755 186.315564 18.33713 191.227023 C 18.33713 193.904106 18.33713 196.513482 18.33713 199.055148 C 18.33713 201.596815 18.33713 204.20619 18.33713 206.883274 C 18.33713 207.29994 18.30588 208.445774 18.238172 210.336399 C 18.165255 212.227024 18.165255 214.060357 18.238172 215.846816 C 18.30588 217.602024 18.49338 218.477024 18.800672 218.477024 Z M 176.587137 139.966604 C 172.092345 139.966604 167.592345 139.898896 163.092345 139.763479 C 158.592345 139.628062 154.092344 139.555146 149.597552 139.555146 C 144.686094 139.555146 139.826719 139.555146 135.019427 139.555146 C 130.243385 139.555146 125.399635 139.487437 120.488176 139.352021 C 115.717343 139.211396 110.993384 139.211396 106.326717 139.352021 C 101.686092 139.487437 97.050675 139.352021 92.415258 138.940562 C 88.1913 138.492646 83.899633 138.357229 79.535049 138.529104 C 75.175674 138.664521 70.816299 138.867646 66.451716 139.143687 C 66.316299 135.060354 66.279841 130.971812 66.347549 126.88327 C 66.420466 122.799937 66.384007 118.72702 66.248591 114.674936 C 66.248591 114.367645 66.175674 113.628061 66.040257 112.461395 C 65.904841 111.25827 65.904841 110.518686 66.040257 110.247853 C 66.316299 109.935353 66.623591 109.831186 66.967341 109.935353 C 67.347549 110.003061 67.670466 110.039519 67.946507 110.039519 C 69.904841 110.039519 71.826716 110.003061 73.717341 109.935353 C 75.639216 109.831186 77.509008 109.784311 79.331924 109.784311 C 87.5038 109.643686 95.6288 109.575978 103.696509 109.575978 C 111.800676 109.575978 119.925676 109.799936 128.061093 110.247853 C 131.738177 110.383269 135.498594 110.487436 139.342344 110.555144 C 143.227761 110.622853 147.003802 110.591603 150.675678 110.450978 C 154.456928 110.174936 158.23297 110.247853 162.009011 110.659311 C 165.821512 111.070769 169.634012 111.346811 173.446512 111.482228 C 177.087137 111.482228 180.727762 111.346811 184.368387 111.070769 C 188.040262 110.794728 191.717346 110.727019 195.389221 110.862436 C 197.212138 111.003061 199.029846 111.242645 200.852763 111.586395 C 202.70693 111.930145 204.472555 112.529103 206.160055 113.388478 C 207.290263 113.935353 208.597555 114.643686 210.071513 115.497853 C 211.55068 116.357228 212.561097 117.336395 213.11318 118.435353 C 213.972555 119.982228 214.436097 121.784312 214.503805 123.846812 C 214.571514 125.872853 214.040264 127.659312 212.904847 129.200979 C 211.910055 130.612437 210.571513 131.846812 208.889222 132.909312 C 207.20693 133.97702 205.592347 134.852021 204.045472 135.539521 C 201.915263 136.398896 199.753805 137.034312 197.555888 137.445771 C 195.389221 137.857229 193.264221 138.200979 191.165263 138.477021 C 188.764221 138.919729 186.357971 139.284312 183.956929 139.555146 C 181.587137 139.831187 179.128804 139.966604 176.587137 139.966604 Z M 160.774636 136.414521 C 164.13922 136.414521 167.503803 136.518687 170.868387 136.721812 C 174.269429 136.930146 177.587137 136.966604 180.811096 136.825979 C 183.904846 136.549937 186.993387 136.206187 190.087138 135.794729 C 193.212138 135.352021 196.248596 134.695771 199.201721 133.836395 C 202.430888 133.013479 205.232972 131.690562 207.597555 129.872854 C 209.009013 128.878062 210.01943 127.846812 210.639222 126.779104 C 211.290263 125.716603 211.482972 124.341603 211.20693 122.659312 C 210.654847 119.982228 208.972555 117.987436 206.160055 116.685353 C 203.342346 115.346811 200.732971 114.518686 198.326721 114.211395 C 194.826721 113.66452 191.238179 113.575978 187.561096 113.956186 C 183.920471 114.299936 180.331929 114.471811 176.79547 114.471811 C 173.566304 114.607228 170.373595 114.53952 167.212137 114.263478 C 164.055886 113.956186 160.85797 113.732228 157.634011 113.591603 C 154.368386 113.456186 151.160053 113.456186 147.998594 113.591603 C 144.837136 113.732228 141.644427 113.732228 138.41526 113.591603 C 134.91526 113.456186 131.462135 113.32077 128.061093 113.180145 C 124.69651 113.044728 121.264218 112.909311 117.759009 112.768686 C 109.722551 112.492645 101.654842 112.461395 93.550675 112.66452 C 85.477758 112.872853 77.357966 113.044728 69.180882 113.180145 C 69.352757 116.992645 69.441299 120.773895 69.441299 124.513478 C 69.441299 128.221812 69.441299 131.966604 69.441299 135.742646 C 76.894424 135.060354 84.34755 135.060354 91.795467 135.742646 C 95.712133 136.018687 99.607967 136.159312 103.493384 136.159312 C 107.373592 136.159312 111.269426 136.159312 115.186093 136.159312 C 122.811093 136.159312 130.41526 136.206187 138.003802 136.310354 C 145.592344 136.378062 153.186094 136.414521 160.774636 136.414521 Z M 499.634026 222.289524 C 498.675693 222.289524 498.040276 222.237441 497.727776 222.133274 C 497.456943 222.065566 497.316318 221.549941 497.316318 220.586399 C 497.316318 219.456191 497.316318 218.336399 497.316318 217.237441 C 497.316318 216.107232 497.316318 215.039524 497.316318 214.044732 C 497.316318 211.643691 497.285068 209.289524 497.212151 206.98744 C 497.144443 204.654107 497.040276 202.284315 496.904859 199.878065 C 496.769443 195.690565 496.696526 191.445773 496.696526 187.154106 C 496.696526 182.862439 496.628818 178.534314 496.493401 174.174939 C 496.493401 173.591606 496.524651 172.596814 496.597568 171.185355 C 496.665276 169.779105 496.696526 168.41973 496.696526 167.117647 C 496.696526 165.779105 496.493401 164.95098 496.081942 164.643688 C 495.634026 164.23223 494.811109 164.060355 493.607984 164.128063 C 492.441317 164.195772 491.498609 164.23223 490.774651 164.23223 C 489.639234 164.096813 488.509025 164.096813 487.373609 164.23223 C 486.27465 164.367647 485.160067 164.440563 484.02465 164.440563 C 480.076733 164.711397 476.02465 164.852022 471.8684 164.852022 C 467.748608 164.852022 463.644441 164.852022 459.555899 164.852022 C 455.331941 164.852022 451.107982 164.971813 446.884024 165.211397 C 442.660065 165.414522 438.436107 165.518689 434.212148 165.518689 C 430.160065 165.659314 426.055898 165.758272 421.899648 165.831189 C 417.743397 165.898897 413.623606 166.003064 409.540272 166.13848 C 401.087147 166.273897 392.60798 166.497855 384.092354 166.805147 C 375.607979 167.081189 367.144437 167.289522 358.691312 167.424939 C 358.420478 167.424939 358.180895 167.393689 357.972562 167.320772 C 357.764228 167.253064 357.50902 167.289522 357.201728 167.424939 C 357.061103 167.70098 357.029853 168.57598 357.097561 170.055147 C 357.16527 171.529105 357.201728 172.471814 357.201728 172.888481 C 357.201728 175.154106 357.201728 177.383272 357.201728 179.581189 C 357.201728 181.747856 357.285061 183.945773 357.456936 186.174939 C 357.592353 190.398898 357.69652 194.622856 357.764228 198.846815 C 357.837145 203.070773 357.936103 207.29994 358.076728 211.523899 C 358.212145 212.482232 358.35277 214.164524 358.488187 216.570774 C 358.623603 218.971816 358.35277 220.518691 357.66527 221.206191 C 357.217353 221.341608 356.462145 221.378066 355.394436 221.310358 C 354.368395 221.242649 353.644436 221.206191 353.232978 221.206191 C 352.097561 221.206191 350.930895 221.206191 349.732978 221.206191 C 348.529853 221.206191 347.363186 221.273899 346.227769 221.414524 C 342.175686 221.825983 338.071519 221.961399 333.915269 221.825983 C 329.759019 221.685358 325.639227 221.685358 321.550685 221.825983 C 319.592352 221.825983 317.550685 221.857233 315.420476 221.924941 C 313.326726 221.997858 311.300684 221.961399 309.342351 221.825983 C 308.759018 221.825983 308.227768 221.825983 307.748601 221.825983 C 307.264226 221.825983 306.665268 221.825983 305.941309 221.825983 C 305.670476 221.825983 305.238184 221.893691 304.654851 222.029108 C 304.107976 222.200983 303.696517 222.200983 303.420476 222.029108 C 302.868392 221.893691 302.441309 221.341608 302.134017 220.383274 C 301.857976 219.112441 301.717351 217.737441 301.717351 216.258274 C 301.717351 214.784316 301.717351 213.409316 301.717351 212.138482 C 301.581934 210.044732 301.477767 207.950982 301.410059 205.857232 C 301.342351 203.727024 301.305892 201.596815 301.305892 199.466607 C 301.035059 190.742648 300.930892 181.987439 300.998601 173.195772 C 301.066309 164.404105 301.102767 155.648896 301.102767 146.924938 C 301.102767 138.200979 301.238184 129.529104 301.514226 120.909312 C 301.790267 112.253061 301.925684 103.565561 301.925684 94.841602 C 301.925684 92.852019 301.993392 90.810352 302.134017 88.711394 C 302.269434 86.581185 302.337142 84.539518 302.337142 82.581185 C 302.509017 81.586393 302.597559 80.674935 302.597559 79.852018 C 302.597559 78.992643 302.597559 78.086393 302.597559 77.122851 C 302.597559 76.263476 302.597559 75.836393 302.597559 75.836393 C 302.597559 75.836393 302.941309 75.695768 303.623601 75.424935 C 304.175684 75.148893 304.915268 75.081185 305.842351 75.216601 C 306.769434 75.352018 307.503809 75.424935 308.055893 75.424935 C 312.555893 75.28431 316.982976 75.216601 321.34756 75.216601 C 325.706935 75.216601 330.071519 75.216601 334.430894 75.216601 C 336.696519 75.216601 338.878811 75.216601 340.972561 75.216601 C 343.066311 75.216601 345.248603 75.216601 347.514228 75.216601 C 348.649644 75.216601 349.732978 75.216601 350.75902 75.216601 C 351.826728 75.216601 352.857978 75.216601 353.85277 75.216601 C 354.982978 75.216601 355.79027 75.25306 356.274645 75.320768 C 356.753811 75.388476 357.061103 75.987435 357.201728 77.122851 C 357.50902 78.805143 357.628811 80.450977 357.561103 82.06556 C 357.493395 83.680143 357.373603 85.263477 357.201728 86.805143 C 357.061103 89.039519 357.029853 91.320769 357.097561 93.65931 C 357.16527 95.992644 357.061103 98.279102 356.79027 100.508269 C 356.373603 104.461394 356.170478 108.320769 356.170478 112.10202 C 356.170478 113.232228 356.170478 114.367645 356.170478 115.497853 C 356.170478 116.63327 356.170478 117.768686 356.170478 118.898895 C 356.170478 119.862437 356.10277 121.112437 355.962145 122.659312 C 355.826728 124.206187 355.962145 125.409312 356.373603 126.268687 C 356.649645 126.815562 357.732978 127.023895 359.623603 126.88327 C 361.545478 126.747854 362.920478 126.607229 363.743395 126.471812 C 366.285062 126.336395 368.79027 126.232228 371.264229 126.16452 C 373.738187 126.096812 376.227771 126.060353 378.732979 126.060353 C 387.592354 125.784312 396.42048 125.784312 405.212147 126.060353 C 414.003814 126.336395 422.826731 126.404103 431.686106 126.268687 C 433.680898 126.268687 435.691315 126.232228 437.717357 126.16452 C 439.743398 126.096812 441.821523 126.060353 443.946524 126.060353 C 445.904857 126.060353 447.930899 126.128062 450.029857 126.268687 C 452.154857 126.404103 454.201732 126.471812 456.160066 126.471812 C 460.691316 126.336395 465.170483 126.232228 469.602775 126.16452 C 474.035067 126.096812 478.4309 126.060353 482.790275 126.060353 C 484.607984 125.924937 486.4309 125.888478 488.248609 125.956187 C 490.071526 126.023895 491.910067 125.992645 493.764234 125.85202 C 494.175692 125.716603 494.722567 125.612437 495.410067 125.544728 C 496.134026 125.47702 496.561109 125.357228 496.696526 125.185353 C 496.972568 124.773895 497.076734 123.794728 497.009026 122.247853 C 496.941318 120.700978 496.904859 119.721812 496.904859 119.310353 C 497.040276 114.950978 497.113193 110.591603 497.113193 106.227019 C 497.113193 101.867644 497.180901 97.503061 497.316318 93.143685 C 497.316318 91.320769 497.316318 89.466602 497.316318 87.581185 C 497.316318 85.654102 497.384026 83.78431 497.524651 81.966602 C 497.524651 81.383268 497.524651 80.539518 497.524651 79.44056 C 497.524651 78.305143 497.660068 77.450976 497.936109 76.862435 C 498.384026 76.180143 499.118401 75.836393 500.149651 75.836393 C 501.217359 75.836393 502.107984 75.836393 502.826734 75.836393 C 504.785068 75.560351 506.77986 75.388476 508.805901 75.320768 C 510.863193 75.25306 512.87361 75.352018 514.831943 75.62806 C 516.790277 75.763476 518.816318 75.732226 520.910069 75.523893 C 523.040277 75.320768 525.097569 75.216601 527.092361 75.216601 C 531.180902 75.216601 535.316319 75.25306 539.509028 75.320768 C 543.732986 75.388476 547.884028 75.424935 551.97257 75.424935 C 552.831945 75.424935 553.295487 75.456185 553.363195 75.523893 C 553.430903 75.591601 553.53507 75.97181 553.670487 76.65931 C 553.811112 77.518685 553.87882 78.40931 553.87882 79.336393 C 553.87882 80.232226 553.87882 81.107227 553.87882 81.966602 C 553.87882 84.195768 553.87882 86.414518 553.87882 88.612435 C 553.87882 90.773894 553.946528 92.919727 554.087153 95.049935 C 554.087153 103.773894 554.014237 112.461395 553.87882 121.112437 C 553.743403 129.737437 553.87882 138.404104 554.290278 147.128063 C 554.701737 155.852021 554.769445 164.57598 554.498612 173.299939 C 554.22257 182.023898 553.946528 190.742648 553.670487 199.466607 C 553.670487 201.732232 553.670487 203.966607 553.670487 206.164524 C 553.670487 208.325982 553.670487 210.45619 553.670487 212.549941 C 553.670487 213.549941 553.706945 214.544732 553.774653 215.539524 C 553.842362 216.503066 553.811112 217.409316 553.670487 218.268691 C 553.53507 219.539524 553.34757 220.414524 553.107987 220.898899 C 552.899653 221.378066 552.248612 221.685358 551.149653 221.825983 C 546.78507 222.133274 542.425695 222.289524 538.066319 222.289524 C 533.701736 222.289524 529.342361 222.200983 524.977777 222.029108 C 520.753819 221.893691 516.52986 221.893691 512.305902 222.029108 C 508.081943 222.200983 503.857984 222.289524 499.634026 222.289524 Z M 489.331942 161.091605 C 492.113192 161.091605 494.774651 161.29473 497.316318 161.706188 C 497.727776 161.706188 498.139234 161.674938 498.555901 161.60723 C 498.998609 161.534313 499.290276 161.63848 499.430901 161.914522 C 499.566318 162.190563 499.602776 162.721813 499.529859 163.508272 C 499.462151 164.268688 499.430901 164.799938 499.430901 165.10723 C 499.566318 168.060355 499.670484 170.98223 499.738193 173.862439 C 499.805901 176.747856 499.842359 179.669731 499.842359 182.622856 C 499.842359 188.664523 499.910068 194.742648 500.045484 200.857232 C 500.217359 206.971815 500.305901 213.117649 500.305901 219.299941 C 508.170485 218.753066 515.99861 218.581191 523.795485 218.784316 C 531.623611 218.992649 539.404861 219.023899 547.12882 218.888483 C 547.545486 218.888483 548.16007 218.919733 548.982986 218.992649 C 549.842361 219.060358 550.342362 218.888483 550.477778 218.477024 C 550.790278 217.893691 550.889237 216.945774 550.790278 215.643691 C 550.717362 214.305149 550.686112 213.341607 550.686112 212.758274 C 550.686112 210.79994 550.649653 208.810357 550.581945 206.784315 C 550.514237 204.721815 550.545487 202.711398 550.686112 200.753065 C 550.686112 196.669732 550.790278 192.58119 550.993403 188.492648 C 551.232987 184.409314 551.425695 180.409314 551.561112 176.492647 C 551.837153 169.039522 551.717362 161.555147 551.201737 154.034313 C 550.717362 146.477021 550.545487 138.971812 550.686112 131.518687 C 550.686112 123.654103 550.717362 115.721811 550.790278 107.721811 C 550.889237 99.685352 550.94132 91.737435 550.94132 83.872852 C 550.94132 83.148893 550.977778 82.37806 551.045487 81.549935 C 551.113195 80.695768 550.993403 79.987435 550.686112 79.44056 C 550.545487 78.857226 550.41007 78.56556 550.274653 78.56556 C 550.134028 78.56556 549.72257 78.56556 549.03507 78.56556 C 547.180903 78.56556 545.243403 78.529101 543.217361 78.461393 C 541.191319 78.393685 539.180903 78.357226 537.186111 78.357226 C 535.368403 78.357226 533.581944 78.357226 531.831944 78.357226 C 530.081944 78.357226 528.274652 78.357226 526.420485 78.357226 C 524.602777 78.357226 522.74861 78.424935 520.857985 78.56556 C 518.972568 78.700976 517.02986 78.700976 515.040277 78.56556 C 513.628818 78.56556 512.222568 78.529101 510.81111 78.461393 C 509.40486 78.393685 507.930901 78.424935 506.384026 78.56556 C 505.696526 78.56556 504.956943 78.56556 504.170485 78.56556 C 503.415276 78.56556 502.675693 78.700976 501.951734 78.977018 C 501.816318 78.977018 501.644443 78.977018 501.436109 78.977018 C 501.232984 78.977018 501.061109 78.977018 500.920484 78.977018 C 500.785068 79.112435 500.717359 79.716601 500.717359 80.779102 C 500.717359 81.84681 500.717359 82.513477 500.717359 82.789518 C 500.269443 90.102019 500.045484 97.487436 500.045484 104.940561 C 500.217359 108.477019 500.305901 112.029103 500.305901 115.60202 C 500.305901 119.174937 500.149651 122.72702 499.842359 126.268687 C 499.701734 127.091604 499.634026 127.555145 499.634026 127.659312 C 499.634026 127.72702 499.357984 127.898895 498.811109 128.174937 C 498.227776 128.44577 497.436109 128.617645 496.441318 128.685354 C 495.477776 128.75827 494.654859 128.78952 493.967359 128.78952 C 491.977776 128.930145 489.967359 128.997854 487.941317 128.997854 C 485.915275 128.997854 483.904859 128.997854 481.915275 128.997854 C 477.967358 129.13327 474.014233 129.200979 470.066316 129.200979 C 466.14965 129.200979 462.217358 129.273895 458.269441 129.409312 C 454.628816 129.544729 450.904857 129.544729 447.092357 129.409312 C 443.311107 129.273895 439.51944 129.200979 435.70694 129.200979 C 427.566315 129.341604 419.446523 129.305145 411.342355 129.10202 C 403.269438 128.893687 395.149646 128.857229 386.972563 128.997854 C 383.024646 128.997854 379.009021 129.065562 374.920479 129.200979 C 370.868395 129.341604 366.800687 129.47702 362.712145 129.612437 C 361.717353 129.612437 360.087145 129.737437 357.816312 129.97702 C 355.587145 130.180145 354.128811 129.992645 353.441311 129.409312 C 353.16527 129.13327 353.097561 128.294729 353.232978 126.88327 C 353.368395 125.47702 353.368395 124.565562 353.232978 124.154103 C 353.232978 123.018687 353.232978 121.904103 353.232978 120.805145 C 353.232978 119.674937 353.16527 118.53952 353.029853 117.404103 C 353.029853 113.456186 353.19652 109.591603 353.54027 105.815561 C 353.88402 102.003061 354.055895 98.122852 354.055895 94.174935 C 354.055895 92.352019 354.055895 90.56556 354.055895 88.81556 C 354.055895 87.06556 354.128811 85.34681 354.264228 83.664518 C 354.264228 83.216602 354.295478 82.289518 354.368395 80.883268 C 354.436103 79.477018 354.331936 78.633268 354.055895 78.357226 C 353.920478 78.086393 353.420478 78.013476 352.561103 78.154101 C 351.738186 78.289518 351.191311 78.357226 350.91527 78.357226 C 346.967353 78.357226 343.014228 78.357226 339.066311 78.357226 C 335.149644 78.357226 331.217352 78.357226 327.269435 78.357226 C 325.279852 78.357226 323.305893 78.357226 321.34756 78.357226 C 319.389227 78.357226 317.415268 78.357226 315.420476 78.357226 C 314.59756 78.357226 313.759018 78.357226 312.899643 78.357226 C 312.071518 78.357226 311.232976 78.357226 310.373601 78.357226 C 309.962143 78.357226 309.191309 78.325976 308.055893 78.25306 C 306.920476 78.185351 306.149643 78.289518 305.738184 78.56556 C 305.602768 78.700976 305.498601 79.372851 305.430893 80.575977 C 305.357976 81.773893 305.326726 83.013477 305.326726 84.28431 C 305.326726 85.555143 305.326726 86.393685 305.326726 86.805143 C 305.186101 89.039519 305.118393 91.25306 305.118393 93.450977 C 305.118393 95.617644 305.118393 97.831186 305.118393 100.096811 C 305.118393 103.909311 305.050684 107.758269 304.915268 111.638478 C 304.774643 115.482228 304.706934 119.294728 304.706934 123.07077 C 304.706934 127.023895 304.623601 130.971812 304.451726 134.919729 C 304.311101 138.867646 304.243393 142.872854 304.243393 146.924938 C 304.243393 150.872855 304.243393 154.85723 304.243393 158.872855 C 304.243393 162.85723 304.175684 166.893689 304.040268 170.98223 C 303.764226 178.570772 303.795476 186.143689 304.139226 193.695773 C 304.519434 201.216607 304.842351 208.70619 305.118393 216.159316 C 305.118393 216.430149 305.087143 216.862441 305.014226 217.445774 C 304.946518 217.992649 304.982976 218.409316 305.118393 218.680149 C 305.394434 218.820774 306.045476 218.888483 307.076726 218.888483 C 308.139226 218.888483 308.899643 218.888483 309.342351 218.888483 C 311.165268 218.888483 312.951726 218.888483 314.701726 218.888483 C 316.451726 218.888483 318.25381 218.820774 320.107977 218.680149 C 324.024643 218.544732 327.920477 218.544732 331.805894 218.680149 C 335.686102 218.820774 339.581936 218.820774 343.498603 218.680149 C 344.493394 218.544732 345.472561 218.440566 346.436103 218.372857 C 347.430894 218.305149 348.425686 218.268691 349.420478 218.268691 C 350.107978 218.268691 350.91527 218.305149 351.842353 218.372857 C 352.769436 218.440566 353.50902 218.409316 354.055895 218.268691 C 354.743395 217.992649 355.087145 217.820774 355.087145 217.753066 C 355.087145 217.654107 355.175686 217.117649 355.347561 216.159316 C 355.347561 215.159316 355.295478 214.185357 355.191311 213.221816 C 355.123603 212.227024 355.087145 211.227024 355.087145 210.232232 C 354.675686 202.779107 354.467353 195.33119 354.467353 187.878064 C 354.331936 186.055148 354.22777 184.268689 354.160061 182.518689 C 354.092353 180.732231 354.055895 178.930147 354.055895 177.112439 C 354.055895 176.112439 354.055895 175.169731 354.055895 174.279106 C 354.055895 173.352022 354.055895 172.471814 354.055895 171.648897 C 354.19652 170.789522 354.160061 169.555147 353.956936 167.940564 C 353.748603 166.32598 353.85277 165.227022 354.264228 164.643688 C 354.54027 164.096813 355.691311 163.88848 357.717353 164.023897 C 359.774645 164.164522 361.16527 164.23223 361.889228 164.23223 C 363.982978 164.23223 366.045479 164.23223 368.07152 164.23223 C 370.128812 164.23223 372.139229 164.164522 374.097562 164.023897 C 381.686104 163.612438 389.311105 163.341605 396.967355 163.20098 C 404.660064 163.065563 412.300689 162.924938 419.894439 162.789522 C 427.759023 162.617647 435.654857 162.430147 443.587149 162.221813 C 451.555899 162.018688 459.488191 161.846813 467.389233 161.706188 C 471.029858 161.706188 474.670483 161.60723 478.311108 161.398897 C 481.982984 161.190563 485.660067 161.091605 489.331942 161.091605 Z M 895.055918 218.477024 C 895.33196 218.888483 895.639251 219.315566 895.983001 219.763483 C 896.36321 220.174941 896.686127 220.518691 896.962168 220.794733 C 894.14446 221.070774 891.399668 221.206191 888.717376 221.206191 C 886.040293 221.206191 883.295501 221.206191 880.477792 221.206191 C 874.436126 221.341608 868.321542 221.378066 862.13925 221.310358 C 855.956958 221.242649 849.774666 221.273899 843.592374 221.414524 C 842.597582 221.414524 841.634041 221.414524 840.706957 221.414524 C 839.816332 221.414524 838.873624 221.414524 837.873624 221.414524 C 837.191332 221.414524 836.311124 221.482233 835.248624 221.617649 C 834.186124 221.753066 833.305915 221.753066 832.623624 221.617649 C 831.623624 221.341608 830.769457 220.758274 830.045499 219.867649 C 829.357999 218.940566 828.743415 218.117649 828.191332 217.393691 C 825.925707 214.747857 823.75904 212.122857 821.701748 209.513482 C 819.675707 206.904107 817.680915 204.258274 815.722581 201.58119 C 814.72779 200.169732 813.732998 198.763482 812.738206 197.357232 C 811.774664 195.945773 810.727789 194.695773 809.592373 193.596815 C 808.910081 192.872856 808.066331 192.513481 807.071539 192.513481 C 806.076748 192.513481 805.029873 192.513481 803.930914 192.513481 C 800.837164 192.648898 797.628831 192.789523 794.295497 192.92494 C 790.998622 193.060356 787.738205 193.133273 784.509038 193.133273 C 777.331955 193.133273 770.118413 193.133273 762.873621 193.133273 C 755.62362 193.133273 748.415287 193.060356 741.238203 192.92494 C 734.196536 192.789523 727.154869 192.753065 720.113202 192.820773 C 713.107994 192.888481 706.08716 192.992648 699.045493 193.133273 C 695.373618 193.26869 691.665284 193.336398 687.920492 193.336398 C 684.212159 193.336398 680.535075 193.42494 676.89445 193.596815 C 675.899659 193.596815 674.524659 193.523898 672.774658 193.388481 C 671.024658 193.216606 669.717367 193.492648 668.857992 194.211398 C 667.899658 194.898898 666.9882 195.945773 666.128825 197.357232 C 665.26945 198.763482 664.498616 199.966607 663.811116 200.961398 C 661.680908 203.638482 659.451741 206.247857 657.113199 208.789524 C 654.811116 211.299941 652.477783 213.820774 650.107991 216.362441 C 649.524657 216.914524 648.956949 217.513482 648.410074 218.164524 C 647.857991 218.784316 647.222574 219.456191 646.503824 220.174941 C 645.951741 220.862441 645.524657 221.242649 645.217366 221.310358 C 644.941324 221.378066 644.389241 221.482233 643.566324 221.617649 C 641.884032 221.753066 640.217365 221.825983 638.571532 221.825983 C 636.956949 221.825983 635.373615 221.825983 633.831948 221.825983 C 626.790281 221.825983 619.748615 221.789524 612.712156 221.721816 C 605.701739 221.654108 598.680905 221.617649 591.639238 221.617649 C 590.644447 221.617649 589.680905 221.617649 588.753822 221.617649 C 587.863196 221.617649 586.920488 221.617649 585.920488 221.617649 C 585.649655 221.617649 585.081946 221.685358 584.222571 221.825983 C 583.399655 221.961399 582.847571 221.961399 582.576738 221.825983 C 582.024655 221.273899 582.092363 220.518691 582.779863 219.555149 C 583.503821 218.560357 583.998613 217.909316 584.274655 217.602024 C 585.82153 215.232232 587.607988 212.961399 589.63403 210.79994 C 591.691322 208.602024 593.63403 206.367649 595.451738 204.102024 C 597.410072 201.872857 599.436114 199.742648 601.529864 197.716607 C 603.660072 195.654106 605.701739 193.575981 607.660072 191.482231 C 609.790281 189.216606 611.868406 186.930148 613.894448 184.633273 C 615.956948 182.294731 617.962156 179.992647 619.92049 177.727022 C 623.873615 173.091606 627.769448 168.38848 631.613198 163.612438 C 635.493407 158.841605 639.477782 154.117646 643.566324 149.445771 C 645.660074 147.075979 647.857991 144.706188 650.160074 142.336396 C 652.493408 139.935354 654.660074 137.529104 656.649658 135.128062 C 658.607991 132.586395 660.529866 130.060354 662.420491 127.555145 C 664.342366 125.013478 666.285075 122.471812 668.243408 119.930145 C 670.196533 117.523895 672.259033 115.206186 674.4257 112.97702 C 676.623617 110.711394 678.717367 108.393686 680.70695 106.023894 C 682.665284 103.617644 684.691326 101.263477 686.785076 98.966602 C 688.915284 96.628061 691.029868 94.325977 693.123618 92.060352 C 695.253826 89.69056 697.259035 87.200977 699.14966 84.591602 C 701.040285 81.982227 703.045493 79.560351 705.175702 77.325976 C 705.863202 76.607226 706.415285 75.97181 706.826743 75.424935 C 707.269452 74.836393 707.904868 74.477018 708.732993 74.341601 C 709.451743 74.200976 710.222577 74.169726 711.050702 74.237435 C 711.910077 74.305143 712.764244 74.273893 713.623619 74.133268 C 715.035077 74.133268 716.425702 74.029101 717.795494 73.825976 C 719.206952 73.617643 720.613202 73.518685 722.019452 73.518685 C 735.826745 73.930143 749.477787 74.133268 762.972579 74.133268 C 764.519454 74.133268 766.134038 74.06556 767.816329 73.930143 C 769.498621 73.789518 771.045496 73.857226 772.451746 74.133268 C 773.998621 74.273893 775.269455 74.90931 776.264246 76.039518 C 777.259038 77.174935 778.170496 78.305143 778.993413 79.44056 C 781.264247 81.810352 783.41008 84.299935 785.436122 86.90931 C 787.493413 89.518685 789.571539 92.008269 791.670497 94.37806 C 800.665289 104.820769 809.665289 115.206186 818.660081 125.544728 C 827.660082 135.883271 836.175707 146.596813 844.212166 157.690563 C 851.941333 168.367647 860.368417 178.503064 869.503834 188.08119 C 878.675709 197.664523 887.191334 207.794732 895.055918 218.477024 Z M 884.701751 218.268691 C 885.837168 218.268691 886.936126 218.268691 887.998626 218.268691 C 889.061126 218.268691 890.076751 218.268691 891.040293 218.268691 C 885.852793 211.643691 880.477792 205.133274 874.915292 198.747857 C 869.352792 192.357231 863.753833 185.987439 858.118417 179.633272 C 852.488208 173.450981 847.217374 167.065564 842.305916 160.471813 C 837.394457 153.841605 832.25904 147.299938 826.904873 140.846812 C 822.128832 135.075979 817.337165 129.341604 812.529873 123.638478 C 807.759039 117.940561 802.915289 112.273895 798.003831 106.638478 C 795.602789 103.825978 793.16008 101.008269 790.69133 98.190561 C 788.248622 95.372852 785.831955 92.560352 783.425705 89.742644 C 782.462163 88.336394 781.415288 86.977018 780.28508 85.674935 C 779.149663 84.336393 778.019455 82.961393 776.884038 81.549935 C 776.331955 80.966602 775.800705 80.331185 775.28508 79.648893 C 774.805913 78.924935 774.22258 78.289518 773.53508 77.742643 C 772.951746 77.466601 772.420496 77.325976 771.936121 77.325976 C 771.456954 77.325976 770.857996 77.325976 770.134038 77.325976 C 762.821537 77.325976 755.472579 77.362435 748.087162 77.430143 C 740.701745 77.497851 733.352786 77.310351 726.040286 76.862435 C 724.493411 76.862435 723.019452 76.831185 721.607994 76.763476 C 720.201744 76.69056 718.722577 76.81556 717.18091 77.122851 C 715.910077 77.258268 714.43091 77.258268 712.748619 77.122851 C 711.066327 76.950976 709.660077 77.227018 708.52466 77.945768 C 707.394452 78.633268 706.295493 79.716601 705.227785 81.19056 C 704.196535 82.669727 703.186118 83.97181 702.191326 85.107227 C 701.227785 86.37806 700.316326 87.680143 699.456951 89.023894 C 698.634035 90.362435 697.654868 91.664519 696.52466 92.935352 C 692.024659 98.258269 687.368409 103.529103 682.561117 108.753061 C 677.790284 113.935353 673.08195 119.211395 668.446533 124.565562 C 666.180908 127.242645 664.066325 129.992645 662.1132 132.810354 C 660.154866 135.622854 657.972575 138.305146 655.571533 140.846812 C 653.201741 143.487438 650.811116 146.081188 648.410074 148.622854 C 646.003824 151.164521 643.686116 153.841605 641.456949 156.659313 C 636.956949 161.98223 632.456948 167.289522 627.956948 172.57598 C 623.456948 177.867647 618.941323 183.169731 614.410073 188.492648 C 612.175698 191.17494 609.857989 193.784315 607.456947 196.325982 C 605.087156 198.83119 602.69653 201.289523 600.295489 203.690565 C 598.029864 205.95619 595.72778 208.325982 593.394447 210.79994 C 591.092363 213.237441 589.029863 215.794732 587.212155 218.477024 C 593.529863 218.477024 599.847572 218.544732 606.165281 218.680149 C 612.519448 218.820774 618.857989 218.888483 625.175698 218.888483 C 626.722573 218.888483 628.300698 218.852024 629.915282 218.784316 C 631.566323 218.716607 633.092365 218.680149 634.498615 218.680149 C 635.910074 218.680149 637.42049 218.753066 639.035074 218.888483 C 640.649657 219.023899 642.087157 218.888483 643.357991 218.477024 C 644.321532 218.200982 645.217366 217.497857 646.040282 216.362441 C 646.899657 215.232232 647.686116 214.320774 648.410074 213.633274 C 649.540282 212.497857 650.587158 211.367649 651.550699 210.232232 C 652.545491 209.102024 653.545491 207.982232 654.540283 206.883274 C 656.222574 204.89369 657.904866 202.950982 659.587158 201.065565 C 661.26945 199.17494 662.816325 197.164523 664.222575 195.039523 C 664.946533 194.075981 665.6132 193.133273 666.232992 192.20619 C 666.852783 191.279106 667.8632 190.742648 669.26945 190.607231 C 670.540283 190.471815 671.847575 190.435356 673.186117 190.503065 C 674.524659 190.570773 675.899659 190.539523 677.305909 190.398898 C 682.665284 190.263481 688.040284 190.159315 693.430909 190.091606 C 698.857993 190.023898 704.316327 189.919731 709.811118 189.784315 C 720.628827 189.508273 731.446536 189.471815 742.264245 189.680148 C 753.118412 189.883273 763.884037 189.98744 774.56633 189.98744 C 777.384038 189.98744 780.12883 189.98744 782.805913 189.98744 C 785.488205 189.98744 788.165288 189.98744 790.842372 189.98744 C 793.66008 189.98744 796.425705 189.919731 799.139247 189.784315 C 801.884039 189.64369 804.597581 189.575981 807.274664 189.575981 C 807.691331 189.575981 808.201748 189.544731 808.821539 189.471815 C 809.472581 189.404106 809.956956 189.440565 810.264248 189.575981 C 810.540289 189.716606 810.884039 190.075981 811.295498 190.659315 C 811.706956 191.20619 811.982998 191.617648 812.118415 191.89369 C 812.97779 192.857231 813.785081 193.836398 814.54029 194.83119 C 815.331956 195.825982 816.066331 196.805148 816.753831 197.76869 C 818.337165 199.898898 819.930915 202.060357 821.545498 204.258274 C 823.160082 206.419732 824.811123 208.54994 826.493415 210.64369 C 827.488207 211.643691 828.399665 212.706191 829.222582 213.841607 C 830.081957 214.971816 830.988207 216.091607 831.951749 217.190566 C 832.811124 218.185357 833.581957 218.648899 834.269457 218.581191 C 834.993416 218.508274 835.988207 218.477024 837.259041 218.477024 C 839.936124 218.336399 842.561124 218.268691 845.139249 218.268691 C 847.748624 218.268691 850.394458 218.200982 853.071541 218.065566 C 858.430917 217.924941 863.738208 217.924941 868.988209 218.065566 C 874.279876 218.200982 879.514251 218.268691 884.701751 218.268691 Z M 780.076746 152.846813 C 780.352788 153.398896 780.696538 153.893688 781.107997 154.341605 C 781.555913 154.753063 781.915288 155.23223 782.19133 155.784313 C 775.149663 155.784313 768.107996 155.784313 761.071537 155.784313 C 754.02987 155.784313 747.003828 155.852021 739.99862 155.987438 C 736.462161 155.987438 732.857994 155.987438 729.180911 155.987438 C 725.540286 155.987438 721.899661 156.07598 718.259035 156.247855 C 714.998619 156.247855 711.686118 156.315563 708.321535 156.45098 C 704.951743 156.591605 701.654868 156.435355 698.43091 155.987438 C 701.654868 151.935355 704.988202 147.904104 708.420493 143.883271 C 711.889244 139.867646 715.378827 135.966604 718.878827 132.190562 C 720.837161 130.200979 722.587161 128.154104 724.134036 126.060353 C 725.680911 123.930145 727.378828 121.888478 729.232994 119.930145 C 730.196536 118.794728 731.087161 117.680145 731.910078 116.581186 C 732.769453 115.450978 733.696536 114.315561 734.696536 113.180145 C 735.415286 112.32077 736.118411 111.273895 736.805911 110.039519 C 737.52987 108.768686 738.368411 107.773894 739.331953 107.049936 C 740.191328 106.362436 740.790286 106.263478 741.134036 106.742644 C 741.477786 107.221811 741.941328 107.825978 742.524661 108.544728 C 743.212162 109.680144 744.050703 110.742644 745.050703 111.737436 C 746.045495 112.700978 747.024662 113.747853 747.982995 114.88327 C 749.805912 116.97702 751.555912 119.086395 753.238204 121.216603 C 754.956954 123.310353 756.722579 125.341603 758.545496 127.294729 C 762.357996 131.38327 766.081954 135.539521 769.722579 139.763479 C 773.399663 143.987438 776.84758 148.346813 780.076746 152.846813 Z M 770.805913 152.643688 C 771.764246 152.643688 772.660079 152.643688 773.482996 152.643688 C 774.342371 152.643688 775.201746 152.643688 776.061121 152.643688 C 773.107996 148.966604 770.186121 145.378063 767.300704 141.872854 C 764.415287 138.372854 761.363204 134.852021 758.134037 131.315562 C 755.040287 128.086395 752.019454 124.753062 749.066328 121.32077 C 746.113203 117.85202 743.227787 114.367645 740.410078 110.862436 C 737.732995 114.367645 734.988203 117.888478 732.170494 121.424937 C 729.352786 124.924937 726.467369 128.362437 723.514244 131.72702 C 720.425702 135.398896 717.21216 139.008271 713.884035 142.544729 C 710.58716 146.049938 707.394452 149.685355 704.300702 153.466605 C 709.93091 152.914521 715.529869 152.711396 721.092369 152.846813 C 726.660077 152.98223 732.253828 152.98223 737.889245 152.846813 C 743.347578 152.846813 748.826745 152.815563 754.321537 152.742646 C 759.816329 152.674938 765.311121 152.643688 770.805913 152.643688 Z M 1041.706966 225.430149 C 1037.212174 225.430149 1032.712174 225.393691 1028.212174 225.325983 C 1023.712174 225.258274 1019.212173 225.086399 1014.717382 224.810358 C 1010.764256 224.810358 1006.748631 224.586399 1002.660089 224.143691 C 1000.566339 223.867649 998.384048 223.659316 996.118422 223.523899 C 993.889256 223.388483 991.706964 223.044733 989.576756 222.492649 C 986.076755 221.633274 982.451755 220.690566 978.706963 219.659316 C 974.99863 218.596816 971.305921 217.909316 967.634046 217.602024 C 963.545504 217.190566 959.665296 216.346816 955.988212 215.075982 C 952.347587 213.805149 948.71217 212.398899 945.071545 210.852024 C 943.52467 210.164524 941.977795 209.477024 940.43092 208.789524 C 938.889253 208.070774 937.342378 207.435357 935.795503 206.883274 C 933.977795 206.164524 932.003836 205.289524 929.873628 204.258274 C 927.779878 203.195773 925.956961 202.096815 924.410086 200.961398 C 923.691336 200.23744 923.264253 199.70619 923.123628 199.36244 C 922.988211 199.01869 923.191336 198.575982 923.743419 198.023898 C 924.462169 197.305148 925.165294 196.633273 925.852794 196.013482 C 926.576753 195.36244 927.212169 194.763481 927.759045 194.211398 C 929.30592 192.669731 930.884045 191.122856 932.498628 189.575981 C 934.113211 188.029106 935.623628 186.487439 937.035087 184.940564 C 938.576753 183.534314 940.05592 182.122856 941.46217 180.716606 C 942.873629 179.310356 944.279879 177.898897 945.686129 176.492647 C 946.545504 175.768689 947.389254 175.034314 948.21217 174.279106 C 949.071545 173.487439 949.93092 172.747856 950.785087 172.060355 C 951.337171 171.477022 952.055921 170.66973 952.951754 169.63848 C 953.878837 168.57598 954.701754 167.977022 955.425712 167.836397 C 955.837171 167.70098 956.248629 167.737439 956.660087 167.940564 C 957.108004 168.148897 957.535087 168.38848 957.946546 168.664522 C 958.941338 169.247855 959.956963 169.779105 960.988213 170.258272 C 962.050713 170.737439 963.081963 171.117647 964.076754 171.393689 C 966.035088 172.38848 968.06113 173.279106 970.15488 174.070772 C 972.285088 174.825981 974.399672 175.565564 976.493422 176.284314 C 984.665297 179.237439 992.925714 181.555148 1001.269464 183.242648 C 1009.649673 184.924939 1018.134048 186.331189 1026.717382 187.466606 C 1035.441341 188.596815 1044.097591 188.992648 1052.680925 188.648898 C 1061.269467 188.273898 1069.852801 187.174939 1078.436134 185.352023 C 1081.941343 184.492648 1085.70176 183.430148 1089.717385 182.159314 C 1093.738218 180.888481 1097.071552 179.065564 1099.712177 176.695772 C 1100.847594 175.700981 1101.85801 174.570772 1102.753844 173.299939 C 1103.680927 172.029105 1103.800719 170.690564 1103.113219 169.279105 C 1102.566344 167.596814 1101.394469 166.242647 1099.60801 165.211397 C 1097.85801 164.143688 1096.212177 163.253063 1094.665302 162.534313 C 1091.024677 160.987438 1087.092385 159.872855 1082.868426 159.185355 C 1078.644468 158.461397 1074.555926 157.893688 1070.608009 157.48223 C 1066.384051 156.935355 1062.19655 156.523896 1058.0403 156.247855 C 1053.9153 155.940563 1049.743425 155.784313 1045.519466 155.784313 C 1040.712174 155.648896 1035.920508 155.695771 1031.149674 155.940563 C 1026.373632 156.143688 1021.602799 156.315563 1016.826757 156.45098 C 1012.019465 156.591605 1007.196548 156.867646 1002.352798 157.279105 C 997.509048 157.690563 992.618422 157.966605 987.670505 158.102022 C 983.035089 158.237438 978.430922 158.565563 973.863213 159.081188 C 969.295505 159.560355 964.696546 160.091605 960.061129 160.674938 C 955.285087 161.227022 950.425712 161.82598 945.483004 162.48223 C 940.571545 163.096813 935.644462 163.680147 930.696545 164.23223 C 930.561128 162.685355 930.660086 161.143688 931.003836 159.596813 C 931.384045 158.049938 931.71217 156.503063 931.983003 154.961396 C 932.394461 152.862438 932.77467 150.768688 933.11842 148.674938 C 933.49342 146.544729 933.821545 144.414521 934.097586 142.289521 C 935.644462 133.836395 936.915295 125.409312 937.910087 116.992645 C 938.597587 112.768686 939.316337 108.544728 940.071545 104.320769 C 940.863212 100.096811 941.61842 95.940561 942.33717 91.857227 C 942.889254 88.075977 943.300712 84.216602 943.576754 80.263476 C 943.576754 79.544726 943.509045 78.59681 943.36842 77.430143 C 943.233004 76.227018 943.300712 75.336393 943.576754 74.75306 C 943.884045 74.200976 944.347587 73.961393 944.967379 74.029101 C 945.581962 74.102018 946.186129 74.133268 946.769462 74.133268 C 955.493421 73.857226 964.248629 73.72181 973.040296 73.72181 C 981.831964 73.72181 990.592381 73.789518 999.311131 73.930143 C 1003.092381 73.930143 1006.920506 74.029101 1010.800715 74.237435 C 1014.680923 74.445768 1018.509048 74.544726 1022.290299 74.544726 C 1026.373632 74.685351 1030.446549 74.716601 1034.498632 74.648893 C 1038.581966 74.581185 1042.670508 74.477018 1046.75905 74.341601 C 1050.842383 74.341601 1054.930925 74.237435 1059.019467 74.029101 C 1063.1028 73.825976 1067.175717 73.789518 1071.227801 73.930143 C 1075.311134 73.930143 1079.363218 73.961393 1083.384051 74.029101 C 1087.399676 74.102018 1091.368427 74.200976 1095.285093 74.341601 C 1099.368427 74.341601 1103.493427 74.40931 1107.644469 74.544726 C 1111.800719 74.685351 1115.993428 74.685351 1120.217386 74.544726 C 1124.441345 74.273893 1128.576762 74.273893 1132.628845 74.544726 C 1133.764262 74.544726 1134.899678 74.544726 1136.029887 74.544726 C 1137.165304 74.544726 1138.212179 74.617643 1139.170512 74.75306 C 1140.170512 74.75306 1140.665304 74.805143 1140.665304 74.90931 C 1140.665304 74.977018 1140.733012 75.352018 1140.873637 76.039518 C 1141.285095 79.133268 1141.493429 82.445768 1141.493429 85.982227 C 1141.493429 88.216602 1141.524679 90.393685 1141.592387 92.523894 C 1141.665304 94.617644 1141.696554 96.716602 1141.696554 98.810352 C 1141.696554 99.940561 1141.696554 101.112436 1141.696554 102.310352 C 1141.696554 103.513478 1141.628845 104.680144 1141.493429 105.815561 C 1141.493429 106.362436 1141.524679 107.169728 1141.592387 108.237436 C 1141.665304 109.268686 1141.561137 110.075978 1141.285095 110.659311 C 1141.009054 111.346811 1139.70697 111.690561 1137.368429 111.690561 C 1135.071553 111.690561 1133.48822 111.690561 1132.628845 111.690561 C 1128.717387 111.825978 1124.748636 111.857228 1120.733011 111.78952 C 1116.712178 111.721811 1112.727803 111.75827 1108.779886 111.893686 C 1104.592386 112.029103 1100.384052 112.065561 1096.160093 111.997853 C 1091.936135 111.930145 1087.779885 111.961395 1083.691343 112.10202 C 1073.837176 112.273895 1064.014259 112.357228 1054.2278 112.357228 C 1044.472591 112.357228 1034.670507 112.357228 1024.811132 112.357228 C 1019.764257 112.357228 1014.696548 112.32077 1009.618423 112.253061 C 1004.56634 112.154103 999.587173 112.185353 994.675714 112.357228 C 993.680922 112.357228 992.649672 112.393686 991.587172 112.461395 C 990.519464 112.529103 989.441339 112.63327 988.34238 112.768686 C 987.894464 112.768686 987.274672 112.737436 986.488214 112.66452 C 985.733005 112.596811 985.21738 112.700978 984.941339 112.97702 C 984.665297 113.253061 984.493422 114.091603 984.425714 115.497853 C 984.358005 116.909311 984.321547 117.815561 984.321547 118.232228 C 984.18613 119.503062 983.99863 120.773895 983.753839 122.044728 C 983.550714 123.310353 983.31113 124.654103 983.035089 126.060353 C 985.576755 125.648895 988.149672 125.305145 990.764256 125.029103 C 993.373631 124.721812 995.930922 124.430145 998.436131 124.154103 C 1001.389256 123.878062 1004.311131 123.674937 1007.196548 123.534312 C 1010.081965 123.398895 1012.998632 123.242645 1015.951757 123.07077 C 1021.72259 122.935353 1027.456966 122.831187 1033.160091 122.763478 C 1038.858008 122.69577 1044.592383 122.72702 1050.363216 122.867645 C 1061.456967 123.003062 1072.634051 123.534312 1083.899676 124.461395 C 1095.165302 125.388478 1106.201761 127.19577 1117.019469 129.872854 C 1119.837178 130.419729 1122.514261 131.091604 1125.055928 131.88327 C 1127.597595 132.638479 1130.055928 133.716604 1132.42572 135.128062 C 1134.826762 136.258271 1137.14447 137.529104 1139.378845 138.940562 C 1141.64447 140.346812 1143.691346 141.893688 1145.509054 143.575979 C 1149.597596 146.940563 1152.686138 151.268688 1154.779888 156.555146 C 1156.910096 161.810355 1157.977804 166.977022 1157.977804 172.060355 C 1157.977804 177.695772 1156.878846 182.930148 1154.680929 187.773898 C 1152.514263 192.617648 1149.253846 196.872857 1144.889262 200.54994 C 1142.930929 202.232232 1140.821554 203.67494 1138.555929 204.878065 C 1136.290304 206.044732 1133.967387 207.263482 1131.602803 208.534315 C 1129.196553 209.805149 1126.691345 211.039524 1124.076761 212.242649 C 1121.503845 213.445774 1118.878844 214.388482 1116.196553 215.075982 C 1110.154886 216.622857 1104.092385 218.216607 1098.01426 219.867649 C 1091.967385 221.482233 1085.85801 222.700983 1079.675718 223.523899 C 1073.358009 224.247858 1067.019467 224.742649 1060.6653 225.018691 C 1054.347592 225.294733 1048.029883 225.430149 1041.706966 225.430149 Z M 969.951755 214.664524 C 971.358005 214.664524 972.800713 214.956191 974.27988 215.539524 C 975.753838 216.091607 977.128838 216.503066 978.399672 216.773899 C 979.946547 217.049941 981.488214 217.310357 983.035089 217.549941 C 984.581964 217.753066 986.055922 218.133274 987.46738 218.680149 C 989.149672 219.232233 990.764256 219.591608 992.305922 219.763483 C 993.889256 219.898899 995.587172 220.107233 997.404881 220.383274 C 998.951756 220.518691 1000.566339 220.727024 1002.248631 220.997858 C 1003.930923 221.273899 1005.545506 221.414524 1007.092381 221.414524 C 1013.717382 221.685358 1020.363215 221.893691 1027.029882 222.029108 C 1033.722591 222.200983 1040.368424 222.289524 1046.962175 222.289524 C 1053.7278 222.289524 1060.441342 222.029108 1067.102801 221.513483 C 1073.800718 221.034316 1080.462176 220.227024 1087.092385 219.091608 C 1090.456968 218.544732 1093.790302 217.773899 1097.087177 216.773899 C 1100.384052 215.779107 1103.800719 214.867649 1107.337177 214.044732 C 1110.842386 213.185357 1114.206969 212.242649 1117.436136 211.211399 C 1120.696553 210.148899 1123.873636 208.841607 1126.962178 207.29994 C 1129.779887 206.029107 1132.628845 204.654107 1135.514262 203.17494 C 1138.399679 201.700982 1140.95697 199.898898 1143.191346 197.76869 C 1145.868429 195.67494 1147.983012 193.320773 1149.524679 190.711398 C 1151.071554 188.102023 1152.410096 185.247856 1153.545513 182.159314 C 1155.503846 176.388481 1155.706971 170.445772 1154.165304 164.336397 C 1152.618429 158.221813 1149.941346 152.914521 1146.128846 148.419729 C 1144.170512 146.013479 1141.785095 143.935354 1138.967387 142.185354 C 1136.149679 140.430146 1133.337178 138.852021 1130.51947 137.445771 C 1127.42572 135.763479 1124.201761 134.544729 1120.83197 133.78952 C 1117.467386 132.997854 1114.019469 132.310354 1110.477802 131.72702 C 1103.748635 130.492645 1096.899677 129.305145 1089.925718 128.174937 C 1082.95176 127.03952 1075.946551 126.404103 1068.910092 126.268687 C 1061.180925 125.992645 1053.524675 125.888478 1045.930925 125.956187 C 1038.342383 126.023895 1030.665299 126.128062 1022.904882 126.268687 C 1015.592382 126.404103 1008.311131 126.69577 1001.066339 127.143687 C 993.852797 127.555145 986.660089 128.466604 979.483005 129.872854 C 979.753838 128.018687 980.02988 126.284312 980.305922 124.669728 C 980.576755 123.055145 980.785088 121.409312 980.920505 119.721812 C 981.06113 118.72702 981.196547 117.815561 981.337172 116.992645 C 981.509047 116.13327 981.660089 115.294728 981.800714 114.471811 C 981.800714 113.888478 981.831964 113.044728 981.899672 111.94577 C 981.972589 110.810353 982.144464 110.091603 982.415297 109.784311 C 982.691339 109.643686 983.274672 109.612436 984.170505 109.680144 C 985.097589 109.747853 985.644464 109.784311 985.816339 109.784311 C 986.639255 109.784311 987.46738 109.747853 988.290297 109.680144 C 989.149672 109.612436 990.076756 109.508269 991.071547 109.367644 C 992.889256 109.232228 994.675714 109.195769 996.430922 109.268686 C 998.212173 109.336394 1000.019464 109.367644 1001.837173 109.367644 C 1009.154881 109.367644 1016.430923 109.367644 1023.680924 109.367644 C 1030.925716 109.367644 1038.206966 109.367644 1045.519466 109.367644 C 1052.837175 109.367644 1060.066342 109.268686 1067.206967 109.060353 C 1074.384051 108.857228 1081.561135 108.820769 1088.743426 108.956186 C 1095.92051 109.096811 1103.029885 109.096811 1110.066344 108.956186 C 1113.430928 108.820769 1116.831969 108.753061 1120.26947 108.753061 C 1123.73822 108.753061 1127.154886 108.685353 1130.51947 108.544728 C 1131.378845 108.544728 1132.217387 108.544728 1133.040303 108.544728 C 1133.899678 108.544728 1134.759053 108.544728 1135.618429 108.544728 C 1136.305929 108.544728 1136.889262 108.544728 1137.368429 108.544728 C 1137.884054 108.544728 1138.212179 108.341603 1138.347595 107.924936 C 1138.623637 107.482228 1138.727804 106.742644 1138.660095 105.711394 C 1138.587179 104.648894 1138.555929 103.825978 1138.555929 103.237436 C 1138.555929 102.279102 1138.555929 101.352019 1138.555929 100.456186 C 1138.555929 99.529102 1138.555929 98.570769 1138.555929 97.570769 C 1138.691345 94.34681 1138.587179 91.049935 1138.243429 87.680143 C 1137.899679 84.28431 1137.80072 80.966602 1137.936137 77.742643 C 1133.30072 77.466601 1128.64447 77.430143 1123.977803 77.638476 C 1119.342386 77.841601 1114.701761 77.87806 1110.066344 77.742643 C 1105.706969 77.602018 1101.274677 77.466601 1096.774677 77.325976 C 1092.279885 77.19056 1087.779885 77.122851 1083.279885 77.122851 C 1078.644468 77.122851 1073.993426 77.122851 1069.321551 77.122851 C 1064.686134 77.122851 1060.118425 77.19056 1055.618425 77.325976 C 1050.983008 77.325976 1046.347591 77.398893 1041.706966 77.53431 C 1037.071549 77.669726 1032.503841 77.742643 1028.003841 77.742643 C 1023.644465 77.742643 1019.352798 77.638476 1015.12884 77.430143 C 1010.904881 77.227018 1006.680923 77.03431 1002.456964 76.862435 C 997.821548 76.591601 993.180922 76.523893 988.545505 76.65931 C 983.910089 76.794726 979.34238 76.950976 974.84238 77.122851 C 972.576755 77.122851 970.274671 77.122851 967.941338 77.122851 C 965.639254 77.122851 963.290296 77.122851 960.884046 77.122851 C 959.748629 77.122851 958.581963 77.122851 957.378837 77.122851 C 956.212171 77.122851 955.061129 77.122851 953.930921 77.122851 C 953.243421 77.122851 951.972587 77.055143 950.11842 76.914518 C 948.295504 76.742643 947.248629 76.81556 946.977795 77.122851 C 946.83717 77.258268 946.769462 77.570768 946.769462 78.049935 C 946.769462 78.529101 946.769462 78.992643 946.769462 79.44056 C 946.634045 80.539518 946.529879 81.622852 946.46217 82.685352 C 946.389254 83.747852 946.269462 84.84681 946.097587 85.982227 C 945.96217 88.216602 945.686129 90.430144 945.27467 92.62806 C 944.863212 94.789519 944.519462 96.935352 944.24342 99.065561 C 942.389253 109.336394 940.722587 119.638478 939.248628 129.97702 C 937.769462 140.310354 935.988212 150.617646 933.889253 160.883272 C 939.936128 160.164522 945.946545 159.320772 951.920504 158.35723 C 957.894462 157.362438 963.904879 156.727021 969.951755 156.45098 C 975.993422 156.143688 981.972589 155.716605 987.878839 155.164521 C 993.816339 154.617646 999.811131 154.185355 1005.858006 153.878063 C 1018.94134 153.055146 1032.009049 152.643688 1045.055925 152.643688 C 1050.998633 152.643688 1056.920508 152.935355 1062.831967 153.518688 C 1068.738217 154.065563 1074.644468 154.820771 1080.550718 155.784313 C 1083.779885 156.367646 1086.936135 157.055146 1090.029885 157.846813 C 1093.118427 158.602022 1096.071552 159.747855 1098.88926 161.29473 C 1101.29551 162.565563 1103.441344 164.440563 1105.326761 166.909314 C 1107.217386 169.346814 1107.180927 171.977022 1105.227802 174.794731 C 1102.956969 178.159314 1099.95176 180.799939 1096.212177 182.727023 C 1092.503843 184.612439 1088.535093 186.023898 1084.311135 186.950981 C 1080.087176 187.841606 1076.087176 188.648898 1072.305926 189.372856 C 1069.217384 189.919731 1066.160092 190.450981 1063.139259 190.966606 C 1060.118425 191.445773 1057.061133 191.758273 1053.967383 191.89369 C 1051.014258 192.034315 1048.045508 192.034315 1045.055925 191.89369 C 1042.102799 191.758273 1039.238216 191.617648 1036.456966 191.482231 C 1023.644465 190.622856 1010.97259 188.784315 998.436131 185.971814 C 991.571547 184.424939 984.680922 182.503064 977.77988 180.200981 C 970.878838 177.867647 964.264254 175.221814 957.946546 172.268689 C 957.227796 171.85723 956.795504 171.617647 956.660087 171.54473 C 956.524671 171.445772 956.180921 171.54473 955.628837 171.85723 C 954.910087 172.268689 954.274671 172.799939 953.722587 173.450981 C 953.175712 174.070772 952.540296 174.654106 951.816337 175.206189 C 949.139254 177.471814 946.46217 179.945772 943.779879 182.622856 C 941.139253 185.268689 938.404878 187.961398 935.592378 190.711398 C 932.77467 193.45619 929.956961 196.169732 927.144461 198.846815 C 930.36842 200.669732 933.634045 202.315565 936.93092 203.794732 C 940.259045 205.26869 943.608004 206.784315 946.977795 208.325982 C 950.613212 209.872857 954.342379 211.315566 958.154879 212.654107 C 961.967379 213.992649 965.899671 214.664524 969.951755 214.664524 Z M 1310.509061 222.700983 C 1291.378852 222.700983 1272.217393 222.633274 1253.019475 222.492649 C 1233.821558 222.357233 1214.660099 222.200983 1195.529889 222.029108 C 1195.118431 222.029108 1194.415306 222.065566 1193.415306 222.133274 C 1192.420514 222.237441 1191.785098 222.200983 1191.509056 222.029108 C 1191.097598 221.617649 1190.962181 220.638483 1191.097598 219.091608 C 1191.238223 217.549941 1191.305931 216.503066 1191.305931 215.950982 C 1191.305931 213.685357 1191.305931 211.503066 1191.305931 209.409315 C 1191.305931 207.279107 1191.238223 205.169732 1191.097598 203.070773 C 1191.097598 197.852023 1191.097598 192.716606 1191.097598 187.669731 C 1191.097598 182.586398 1191.097598 177.456189 1191.097598 172.268689 C 1191.097598 162.273897 1191.269473 152.398896 1191.613223 142.648896 C 1191.956973 132.862437 1192.128848 123.03952 1192.128848 113.180145 C 1192.128848 108.268686 1192.061139 103.362436 1191.925723 98.450977 C 1191.785098 93.50306 1191.852806 88.643685 1192.128848 83.872852 C 1192.128848 82.602018 1192.196556 80.987435 1192.337181 79.029101 C 1192.509056 77.03431 1193.295514 75.836393 1194.706973 75.424935 C 1195.805931 75.148893 1196.988223 75.008268 1198.259056 75.008268 C 1199.52989 75.008268 1200.665306 75.008268 1201.660098 75.008268 C 1203.066348 75.008268 1204.425723 75.008268 1205.727807 75.008268 C 1207.066348 75.008268 1208.441348 75.008268 1209.852807 75.008268 C 1218.884057 74.836393 1227.863224 74.805143 1236.790308 74.90931 C 1245.7226 74.977018 1254.686142 75.008268 1263.680934 75.008268 C 1268.592393 74.836393 1273.467393 74.648893 1278.311143 74.445768 C 1283.186143 74.237435 1288.014268 74.341601 1292.785102 74.75306 C 1297.425727 75.060351 1302.128852 75.216601 1306.899686 75.216601 C 1311.712186 75.216601 1316.430936 75.148893 1321.066353 75.008268 C 1325.977812 74.700976 1330.85802 74.664518 1335.696562 74.90931 C 1340.576771 75.112435 1345.399688 75.216601 1350.175729 75.216601 C 1355.118438 75.216601 1359.977813 75.180143 1364.753855 75.112435 C 1369.524689 75.044726 1374.300731 75.008268 1379.071564 75.008268 C 1388.519481 74.836393 1397.873648 74.805143 1407.14969 74.90931 C 1416.456982 74.977018 1425.743441 75.008268 1435.014275 75.008268 C 1435.701775 75.008268 1436.358025 75.008268 1436.972608 75.008268 C 1437.628858 75.008268 1438.0924 75.216601 1438.363233 75.62806 C 1438.81115 76.31556 1438.915317 77.430143 1438.675733 78.977018 C 1438.4674 80.523893 1438.363233 81.72181 1438.363233 82.581185 C 1438.363233 84.84681 1438.295525 87.148893 1438.160108 89.487435 C 1438.019483 91.78431 1437.951775 94.122852 1437.951775 96.492644 C 1437.951775 97.622852 1437.951775 98.825977 1437.951775 100.096811 C 1437.951775 101.367644 1437.951775 102.570769 1437.951775 103.700978 C 1437.951775 104.388478 1438.019483 105.404103 1438.160108 106.742644 C 1438.295525 108.081186 1438.227817 109.096811 1437.951775 109.784311 C 1437.4049 110.914519 1435.790317 111.482228 1433.108025 111.482228 C 1430.430941 111.482228 1428.524691 111.482228 1427.394483 111.482228 C 1422.618441 111.482228 1417.847607 111.638478 1413.071566 111.94577 C 1408.300732 112.221811 1403.509065 112.424936 1398.701773 112.565561 C 1393.790315 112.700978 1388.858023 112.768686 1383.915314 112.768686 C 1379.003856 112.768686 1374.092397 112.768686 1369.180939 112.768686 C 1359.05073 112.909311 1348.920521 113.00827 1338.790312 113.081186 C 1328.660104 113.148895 1318.524686 113.112436 1308.394478 112.97702 C 1298.988227 112.836395 1289.561144 112.596811 1280.113226 112.253061 C 1270.706976 111.878061 1261.206976 111.825978 1251.62885 112.10202 C 1251.217392 112.10202 1250.342392 112.065561 1248.998642 111.997853 C 1247.6601 111.930145 1246.852808 112.049936 1246.581975 112.357228 C 1246.305933 112.63327 1246.238225 113.544728 1246.373642 115.086395 C 1246.509058 116.63327 1246.581975 117.612436 1246.581975 118.023895 C 1246.581975 118.747853 1246.545517 119.91452 1246.477808 121.529103 C 1246.4101 123.143687 1246.4101 124.685353 1246.477808 126.16452 C 1246.545517 127.638479 1246.7851 128.513479 1247.196558 128.78952 C 1247.920517 129.065562 1249.019475 129.13327 1250.493433 128.997854 C 1251.9726 128.857229 1253.139267 128.78952 1253.998642 128.78952 C 1255.233017 128.78952 1256.519475 128.78952 1257.863225 128.78952 C 1259.201767 128.78952 1260.571559 128.78952 1261.983017 128.78952 C 1264.384059 128.78952 1266.805934 128.825979 1269.243434 128.893687 C 1271.717393 128.961395 1274.22781 128.997854 1276.764268 128.997854 C 1286.899685 129.13327 1297.029894 129.200979 1307.160103 129.200979 C 1317.290311 129.200979 1327.42052 129.200979 1337.550729 129.200979 C 1342.191354 129.200979 1346.826771 129.169729 1351.462188 129.10202 C 1356.097605 129.029104 1360.733022 128.930145 1365.368438 128.78952 C 1370.316355 128.513479 1375.206981 128.44577 1380.050731 128.586395 C 1384.894481 128.721812 1389.785106 128.721812 1394.733023 128.586395 C 1397.102815 128.44577 1399.436148 128.378062 1401.738232 128.378062 C 1404.071565 128.378062 1406.441357 128.513479 1408.847607 128.78952 C 1409.842399 128.78952 1410.821565 128.75827 1411.785107 128.685354 C 1412.779899 128.617645 1413.774691 128.654104 1414.769482 128.78952 C 1415.733024 128.930145 1416.436149 129.63327 1416.884066 130.904104 C 1417.430941 132.997854 1417.602816 135.383271 1417.399691 138.065562 C 1417.191357 140.742646 1416.951774 143.143688 1416.675732 145.273896 C 1416.368441 147.367646 1416.180941 149.482229 1416.113232 151.612438 C 1416.040316 153.706188 1415.941357 155.799938 1415.800732 157.893688 C 1415.800732 158.477022 1415.837191 159.409313 1415.904899 160.674938 C 1415.972607 161.914522 1415.733024 162.753063 1415.186149 163.20098 C 1414.910107 163.612438 1414.035107 163.820772 1412.555941 163.820772 C 1411.081982 163.820772 1410.050732 163.820772 1409.467399 163.820772 C 1407.509065 163.956188 1405.535107 164.023897 1403.540315 164.023897 C 1401.581982 164.023897 1399.628857 163.956188 1397.670523 163.820772 C 1395.847606 163.54473 1393.977815 163.581188 1392.05594 163.924938 C 1390.165315 164.268688 1388.243439 164.367647 1386.285106 164.23223 C 1384.019481 163.956188 1381.753856 163.956188 1379.483022 164.23223 C 1377.253856 164.508272 1375.087189 164.643688 1372.993439 164.643688 C 1362.998647 164.779105 1353.009063 164.971813 1343.014271 165.211397 C 1333.019479 165.414522 1323.024687 165.45098 1313.029895 165.315564 C 1303.212186 165.315564 1293.269477 165.242647 1283.206977 165.10723 C 1273.144476 164.935355 1263.113226 165.143689 1253.123642 165.727022 C 1252.295517 165.727022 1251.217392 165.659314 1249.87885 165.518689 C 1248.5351 165.383272 1247.509058 165.45098 1246.7851 165.727022 C 1246.238225 165.862439 1245.962183 166.070772 1245.962183 166.341605 C 1245.962183 166.617647 1245.962183 167.253064 1245.962183 168.247855 C 1245.962183 170.654105 1246.029892 173.091606 1246.165308 175.565564 C 1246.305933 178.003064 1246.238225 180.492648 1245.962183 183.034314 C 1252.144475 183.445773 1258.425726 183.617648 1264.816351 183.549939 C 1271.238226 183.482231 1277.608018 183.378064 1283.925727 183.242648 C 1290.108019 183.242648 1296.326769 183.169731 1302.576769 183.034314 C 1308.858019 182.898898 1315.092395 182.825981 1321.274687 182.825981 C 1333.946562 182.966606 1346.602813 183.138481 1359.23823 183.341606 C 1371.910105 183.549939 1384.514273 183.378064 1397.050732 182.825981 C 1398.597607 182.825981 1400.139273 182.794731 1401.686148 182.727023 C 1403.233023 182.654106 1404.779899 182.534314 1406.321565 182.362439 C 1407.86844 182.362439 1409.378857 182.487439 1410.858024 182.727023 C 1412.331982 182.930148 1413.774691 183.034314 1415.186149 183.034314 C 1417.998649 183.034314 1420.852816 182.930148 1423.733024 182.727023 C 1426.618441 182.487439 1429.399691 182.294731 1432.081983 182.159314 C 1433.62365 182.159314 1435.139275 182.190564 1436.613233 182.263481 C 1438.0924 182.331189 1439.535108 182.294731 1440.941358 182.159314 C 1442.347608 182.159314 1443.49865 182.315564 1444.394484 182.622856 C 1445.321567 182.898898 1445.920525 183.805148 1446.196567 185.352023 C 1446.4674 186.758273 1446.571567 188.273898 1446.503859 189.883273 C 1446.43615 191.497856 1446.399692 193.08119 1446.399692 194.622856 C 1446.540317 196.169732 1446.639275 197.716607 1446.712192 199.263482 C 1446.7799 200.805148 1446.884067 202.352023 1447.019484 203.898899 C 1447.326775 206.575982 1447.483025 209.221815 1447.483025 211.831191 C 1447.483025 214.440566 1447.399692 217.154107 1447.227817 219.971816 C 1447.227817 220.107233 1447.227817 220.383274 1447.227817 220.794733 C 1447.227817 221.206191 1447.1549 221.482233 1447.019484 221.617649 C 1446.743442 221.893691 1446.144484 221.997858 1445.2174 221.924941 C 1444.321567 221.857233 1443.738234 221.825983 1443.4674 221.825983 C 1441.7799 221.825983 1440.081983 221.825983 1438.363233 221.825983 C 1436.680942 221.825983 1434.930941 221.825983 1433.108025 221.825983 C 1426.790316 221.825983 1420.456983 221.893691 1414.102816 222.029108 C 1407.785107 222.200983 1401.46219 222.357233 1395.144481 222.492649 C 1387.967398 222.492649 1380.753856 222.372858 1373.509064 222.133274 C 1366.264272 221.924941 1359.05073 221.825983 1351.873646 221.825983 C 1344.972604 221.825983 1338.066354 221.961399 1331.165312 222.237441 C 1324.29552 222.544733 1317.410103 222.700983 1310.509061 222.700983 Z M 1286.243435 219.299941 C 1295.243435 219.299941 1304.170519 219.299941 1313.029895 219.299941 C 1321.894478 219.299941 1330.837187 219.232233 1339.868437 219.091608 C 1348.592396 218.820774 1357.352813 218.784316 1366.14448 218.992649 C 1374.936147 219.195774 1383.759064 219.299941 1392.61844 219.299941 C 1396.983023 219.299941 1401.290315 219.195774 1405.550732 218.992649 C 1409.842399 218.784316 1414.170524 218.680149 1418.529899 218.680149 C 1420.660108 218.680149 1422.774691 218.680149 1424.868441 218.680149 C 1426.998649 218.680149 1429.108025 218.680149 1431.206983 218.680149 C 1432.337191 218.680149 1433.503858 218.680149 1434.706983 218.680149 C 1435.910108 218.680149 1437.06115 218.680149 1438.160108 218.680149 C 1438.602817 218.680149 1439.634067 218.753066 1441.24865 218.888483 C 1442.863233 219.023899 1443.805942 218.956191 1444.081984 218.680149 C 1444.358025 218.409316 1444.462192 217.961399 1444.394484 217.341607 C 1444.321567 216.690566 1444.290317 216.159316 1444.290317 215.747857 C 1444.566359 213.477024 1444.566359 211.299941 1444.290317 209.200982 C 1444.290317 207.211399 1444.18615 205.200982 1443.977817 203.17494 C 1443.774692 201.117648 1443.602817 199.107232 1443.4674 197.148898 C 1443.4674 196.154107 1443.4674 195.211398 1443.4674 194.315565 C 1443.4674 193.388481 1443.394484 192.513481 1443.259067 191.690565 C 1443.259067 191.107231 1443.295525 190.008273 1443.363234 188.39369 C 1443.430942 186.779106 1443.326775 185.831189 1443.050733 185.560356 C 1442.878858 185.284314 1442.519483 185.180148 1441.972608 185.247856 C 1441.420525 185.320773 1440.993442 185.352023 1440.680942 185.352023 C 1439.31115 185.352023 1437.951775 185.352023 1436.613233 185.352023 C 1435.274691 185.352023 1433.9674 185.352023 1432.696566 185.352023 C 1430.571566 185.352023 1428.456983 185.419731 1426.363233 185.560356 C 1424.269483 185.695773 1422.154899 185.763481 1420.024691 185.763481 C 1418.066357 185.904106 1416.061149 185.904106 1413.998649 185.763481 C 1411.972607 185.628064 1409.983024 185.560356 1408.02469 185.560356 C 1403.660107 185.419731 1399.36844 185.560356 1395.144481 185.971814 C 1390.920523 186.383273 1386.696564 186.586398 1382.472606 186.586398 C 1373.889272 186.727023 1365.26948 186.690564 1356.61323 186.487439 C 1347.956979 186.279106 1339.269479 186.107231 1330.54552 185.971814 C 1321.821562 185.831189 1313.066353 185.867648 1304.274686 186.075981 C 1295.483019 186.279106 1286.72781 186.383273 1278.003851 186.383273 C 1273.639268 186.383273 1269.279893 186.383273 1264.920517 186.383273 C 1260.592392 186.383273 1256.248642 186.315564 1251.884059 186.174939 C 1251.44135 186.174939 1250.514267 186.211398 1249.102808 186.279106 C 1247.696558 186.346814 1246.358017 186.346814 1245.087183 186.279106 C 1243.8476 186.211398 1243.076767 185.971814 1242.769475 185.560356 C 1242.493433 184.836398 1242.456975 183.825981 1242.665308 182.518689 C 1242.904891 181.180148 1243.024683 180.216606 1243.024683 179.633272 C 1243.1601 178.503064 1243.196558 177.383272 1243.12885 176.284314 C 1243.061142 175.154106 1243.024683 174.018689 1243.024683 172.888481 C 1243.024683 171.753064 1242.9726 170.66973 1242.868433 169.63848 C 1242.800725 168.57598 1242.769475 167.477022 1242.769475 166.341605 C 1242.769475 165.930147 1242.800725 165.383272 1242.868433 164.695772 C 1242.9726 163.971813 1243.1601 163.477022 1243.436142 163.20098 C 1243.712183 162.753063 1244.259058 162.581188 1245.087183 162.685355 C 1245.946558 162.753063 1246.649683 162.789522 1247.196558 162.789522 C 1248.331975 162.617647 1249.462183 162.534313 1250.5976 162.534313 C 1251.733017 162.534313 1252.863225 162.534313 1253.998642 162.534313 C 1258.498642 162.258272 1262.993434 162.117647 1267.493434 162.117647 C 1271.993434 162.117647 1276.425726 162.117647 1280.785101 162.117647 C 1289.644477 162.117647 1298.503852 162.117647 1307.363228 162.117647 C 1316.227811 162.117647 1325.154895 162.117647 1334.154895 162.117647 C 1342.462187 162.117647 1350.826771 162.018688 1359.23823 161.810355 C 1367.686147 161.60723 1376.134064 161.362438 1384.587189 161.091605 C 1385.441356 161.091605 1386.217398 161.122855 1386.904898 161.190563 C 1387.587189 161.26348 1388.363231 161.227022 1389.222606 161.091605 C 1389.941356 160.95098 1390.717398 160.883272 1391.540315 160.883272 C 1392.39969 160.883272 1393.170523 160.815563 1393.858023 160.674938 C 1396.123648 160.508272 1398.33719 160.57598 1400.503857 160.883272 C 1402.701773 161.159313 1404.847607 161.227022 1406.941357 161.091605 C 1407.352815 160.95098 1408.36844 160.883272 1409.983024 160.883272 C 1411.628857 160.883272 1412.524691 160.727022 1412.660107 160.41973 C 1412.936149 160.143688 1413.035107 159.529105 1412.967399 158.565563 C 1412.899691 157.570772 1412.863232 156.867646 1412.863232 156.45098 C 1413.003857 154.461396 1413.139274 152.41973 1413.279899 150.320771 C 1413.415316 148.195771 1413.550732 146.148896 1413.691357 144.190563 C 1413.826774 143.336396 1413.930941 142.461396 1413.998649 141.565562 C 1414.066357 140.638479 1414.102816 139.695771 1414.102816 138.732229 C 1414.102816 138.013479 1414.134066 137.013479 1414.206982 135.742646 C 1414.274691 134.471812 1414.170524 133.497854 1413.894482 132.810354 C 1413.759066 132.22702 1413.691357 131.935354 1413.691357 131.935354 C 1413.691357 131.935354 1413.279899 131.935354 1412.451774 131.935354 C 1411.18094 131.935354 1409.910107 131.898895 1408.639274 131.831187 C 1407.36844 131.763479 1406.102815 131.659312 1404.831982 131.518687 C 1400.467398 131.247854 1396.139273 131.211395 1391.847606 131.419729 C 1387.555939 131.622854 1383.227814 131.72702 1378.868439 131.72702 C 1370.14448 131.591604 1361.384063 131.638479 1352.592396 131.88327 C 1343.800729 132.086395 1335.04552 132.190562 1326.321562 132.190562 C 1317.32677 132.190562 1308.363228 132.190562 1299.430936 132.190562 C 1290.503852 132.190562 1281.54031 132.10202 1272.540309 131.935354 C 1268.180934 131.794729 1263.785101 131.763479 1259.352809 131.831187 C 1254.925725 131.898895 1250.529892 131.935354 1246.165308 131.935354 C 1245.75385 131.794729 1245.290308 131.72702 1244.774683 131.72702 C 1244.295517 131.72702 1243.920517 131.659312 1243.644475 131.518687 C 1243.50385 131.247854 1243.4726 130.372854 1243.540308 128.893687 C 1243.608017 127.41452 1243.644475 126.471812 1243.644475 126.060353 C 1243.644475 123.794728 1243.644475 121.612437 1243.644475 119.518687 C 1243.644475 117.388478 1243.576767 115.206186 1243.436142 112.97702 C 1243.436142 112.700978 1243.404892 112.065561 1243.331975 111.070769 C 1243.264267 110.075978 1243.300725 109.508269 1243.436142 109.367644 C 1243.712183 109.096811 1244.587183 108.992644 1246.06635 109.060353 C 1247.540308 109.128061 1248.483017 109.164519 1248.899683 109.164519 C 1251.300725 109.023894 1253.618434 108.956186 1255.852809 108.956186 C 1258.118434 108.956186 1260.368434 108.956186 1262.602809 108.956186 C 1266.962184 109.096811 1271.321559 109.164519 1275.686143 109.164519 C 1280.045518 109.164519 1284.410102 109.299936 1288.769477 109.575978 C 1297.628852 110.023894 1306.456978 110.211394 1315.248645 110.143686 C 1324.040312 110.075978 1332.863229 109.956186 1341.727812 109.784311 C 1350.446563 109.643686 1359.20698 109.539519 1367.998647 109.471811 C 1376.790314 109.404103 1385.545523 109.440561 1394.269481 109.575978 C 1398.49344 109.575978 1402.68094 109.404103 1406.83719 109.060353 C 1410.99344 108.716603 1415.186149 108.544728 1419.410107 108.544728 C 1421.363233 108.544728 1423.290316 108.544728 1425.175733 108.544728 C 1427.102816 108.544728 1428.972608 108.477019 1430.790316 108.341603 C 1431.206983 108.341603 1431.910108 108.341603 1432.9049 108.341603 C 1433.899691 108.341603 1434.535108 108.268686 1434.81115 108.133269 C 1435.087191 107.825978 1435.1549 106.982228 1435.014275 105.607228 C 1434.878858 104.200978 1434.81115 103.409311 1434.81115 103.237436 C 1434.946566 99.049936 1435.050733 94.841602 1435.118441 90.617644 C 1435.18615 86.393685 1435.290316 82.169727 1435.430942 77.945768 C 1431.477816 77.945768 1427.529899 77.945768 1423.581983 77.945768 C 1419.665316 77.945768 1415.733024 78.086393 1411.785107 78.357226 C 1410.373649 78.357226 1408.89969 78.25306 1407.352815 78.049935 C 1405.80594 77.841601 1404.264273 77.742643 1402.717398 77.742643 C 1400.483023 77.742643 1398.238232 77.742643 1395.967398 77.742643 C 1393.738231 77.742643 1391.488231 77.742643 1389.222606 77.742643 C 1374.040314 78.154101 1358.915313 78.357226 1343.837188 78.357226 C 1336.108021 78.357226 1328.384062 78.325976 1320.654895 78.25306 C 1312.930936 78.185351 1305.186144 78.086393 1297.425727 77.945768 C 1295.467394 77.945768 1293.493435 77.87806 1291.498644 77.742643 C 1289.54031 77.602018 1287.581977 77.53431 1285.628852 77.53431 C 1283.670518 77.53431 1281.69656 77.602018 1279.701768 77.742643 C 1277.743435 77.87806 1275.79031 77.945768 1273.831976 77.945768 C 1270.019476 78.086393 1266.206976 78.185351 1262.394476 78.25306 C 1258.618434 78.325976 1254.821559 78.357226 1251.009059 78.357226 C 1247.233017 78.357226 1243.436142 78.22181 1239.623641 77.945768 C 1235.811141 77.669726 1232.019474 77.602018 1228.238224 77.742643 C 1224.430932 77.87806 1220.581974 77.945768 1216.701765 77.945768 C 1212.852807 77.945768 1208.956973 77.945768 1205.009057 77.945768 C 1204.045515 77.945768 1203.102806 77.945768 1202.175723 77.945768 C 1201.24864 77.945768 1200.37364 78.013476 1199.545515 78.154101 C 1199.102806 78.154101 1198.415306 78.117643 1197.488223 78.049935 C 1196.592389 77.982226 1196.009056 78.086393 1195.733014 78.357226 C 1195.597598 78.633268 1195.493431 79.200976 1195.425723 80.060351 C 1195.358014 80.883268 1195.321556 81.518685 1195.321556 81.966602 C 1195.186139 82.924935 1195.081973 83.94056 1195.014264 85.00306 C 1194.946556 86.070768 1194.910098 87.169727 1194.910098 88.299935 C 1194.910098 92.352019 1194.977806 96.424936 1195.118431 100.508269 C 1195.253848 104.596811 1195.321556 108.685353 1195.321556 112.768686 C 1195.186139 120.773895 1194.962181 128.75827 1194.654889 136.721812 C 1194.378848 144.659313 1194.243431 152.555146 1194.243431 160.41973 C 1194.102806 168.456189 1194.071556 176.456189 1194.139264 184.424939 C 1194.206973 192.357231 1194.243431 200.325982 1194.243431 208.325982 C 1194.243431 209.325982 1194.274681 210.42494 1194.342389 211.622857 C 1194.415306 212.825982 1194.446556 213.977024 1194.446556 215.075982 C 1194.446556 215.523899 1194.415306 216.242649 1194.342389 217.237441 C 1194.274681 218.200982 1194.394473 218.820774 1194.706973 219.091608 C 1194.977806 219.232233 1195.858014 219.263483 1197.331973 219.195774 C 1198.81114 219.128066 1199.821556 219.091608 1200.37364 219.091608 C 1201.227806 219.091608 1202.071556 219.060358 1202.894473 218.992649 C 1203.753848 218.919733 1204.680932 218.888483 1205.675723 218.888483 C 1210.040307 218.612441 1214.347599 218.581191 1218.608015 218.784316 C 1222.899682 218.992649 1227.227807 219.164524 1231.587183 219.299941 C 1240.759058 219.435358 1249.9101 219.471816 1259.045517 219.404108 C 1268.180934 219.336399 1277.248643 219.299941 1286.243435 219.299941 Z M 1286.243435 219.299941 " stroke="#ffffff" stroke-width="7.912837" stroke-opacity="1" stroke-miterlimit="4"/></svg>